<?xml version="1.0" encoding="utf-8"?>
<!-- Generator: Adobe Illustrator 15.0.0, SVG Export Plug-In . SVG Version: 6.00 Build 0)  -->
<!DOCTYPE svg PUBLIC "-//W3C//DTD SVG 1.1//EN" "http://www.w3.org/Graphics/SVG/1.1/DTD/svg11.dtd">
<svg version="1.1" id="Layer_1" xmlns="http://www.w3.org/2000/svg" xmlns:xlink="http://www.w3.org/1999/xlink" x="0px" y="0px"
	 width="100px" height="35px" viewBox="0 0 100 35" enable-background="new 0 0 100 35" xml:space="preserve">
<rect x="-0.197" y="0.25" fill="#CCCCCC" width="100.205" height="34.5"/>
<g>
	<path fill="#FFFFFF" d="M11.05,21.541v-5.083h1.026v5.083H11.05z"/>
	<path fill="#FFFFFF" d="M13.04,21.541v-5.083h1.536l0.924,3.467l0.911-3.467h1.539v5.083h-0.953V17.54l-1.008,4.001H15
		l-1.007-4.001v4.001H13.04z"/>
	<path fill="#FFFFFF" d="M23.552,21.541h-1.117l-0.444-1.154h-2.032l-0.42,1.154h-1.087l1.979-5.083h1.084L23.552,21.541z
		 M21.663,19.531l-0.702-1.887l-0.687,1.887H21.663z"/>
	<path fill="#FFFFFF" d="M26.459,19.673v-0.856h2.213v2.023c-0.215,0.208-0.526,0.393-0.935,0.55
		c-0.407,0.16-0.82,0.237-1.239,0.237c-0.532,0-0.995-0.11-1.39-0.334c-0.396-0.223-0.693-0.541-0.892-0.957
		c-0.199-0.413-0.297-0.865-0.297-1.353c0-0.53,0.11-1,0.332-1.412c0.221-0.411,0.546-0.727,0.974-0.946
		c0.326-0.17,0.731-0.254,1.218-0.254c0.63,0,1.123,0.133,1.477,0.398c0.355,0.264,0.583,0.63,0.686,1.097l-1.02,0.191
		c-0.071-0.251-0.206-0.448-0.404-0.592c-0.197-0.145-0.445-0.216-0.739-0.216c-0.449,0-0.806,0.142-1.071,0.426
		c-0.263,0.285-0.396,0.706-0.396,1.266c0,0.604,0.133,1.055,0.401,1.356s0.621,0.454,1.055,0.454c0.214,0,0.43-0.044,0.646-0.128
		s0.402-0.187,0.556-0.307v-0.645H26.459z"/>
	<path fill="#FFFFFF" d="M29.618,21.541v-5.083h3.769v0.859h-2.743v1.127h2.552v0.856h-2.552v1.383h2.84v0.856H29.618z"/>
	<path fill="#FFFFFF" d="M36.327,21.541v-5.083h1.646c0.624,0,1.031,0.026,1.22,0.076c0.292,0.077,0.535,0.242,0.732,0.498
		c0.197,0.255,0.296,0.585,0.296,0.991c0,0.312-0.058,0.573-0.171,0.785c-0.114,0.214-0.257,0.381-0.432,0.502
		c-0.174,0.122-0.351,0.202-0.531,0.24c-0.245,0.051-0.599,0.074-1.064,0.074h-0.669v1.916H36.327z M37.353,17.318v1.443h0.561
		c0.405,0,0.674-0.026,0.812-0.079c0.137-0.054,0.245-0.137,0.321-0.25c0.078-0.114,0.117-0.245,0.117-0.396
		c0-0.184-0.056-0.337-0.164-0.457c-0.109-0.121-0.245-0.195-0.413-0.225c-0.122-0.023-0.368-0.036-0.738-0.036H37.353z"/>
	<path fill="#FFFFFF" d="M41.09,21.541V16.5h1.027v4.185h2.551v0.856H41.09z"/>
	<path fill="#FFFFFF" d="M49.981,21.541h-1.116l-0.442-1.154H46.39l-0.419,1.154h-1.088l1.979-5.083h1.086L49.981,21.541z
		 M48.093,19.531l-0.698-1.887l-0.688,1.887H48.093z"/>
	<path fill="#FFFFFF" d="M53.778,19.673l0.995,0.315c-0.152,0.556-0.406,0.966-0.762,1.236c-0.354,0.27-0.803,0.402-1.349,0.402
		c-0.675,0-1.229-0.229-1.665-0.689c-0.436-0.463-0.65-1.092-0.65-1.893c0-0.846,0.217-1.502,0.653-1.971
		c0.438-0.467,1.012-0.703,1.725-0.703c0.62,0,1.125,0.184,1.514,0.552c0.232,0.218,0.406,0.53,0.521,0.937l-1.015,0.243
		c-0.061-0.264-0.186-0.473-0.377-0.625c-0.19-0.152-0.423-0.229-0.695-0.229c-0.378,0-0.683,0.135-0.917,0.405
		c-0.236,0.271-0.353,0.709-0.353,1.314c0,0.644,0.115,1.101,0.348,1.373c0.23,0.272,0.532,0.41,0.901,0.41
		c0.272,0,0.507-0.088,0.702-0.262C53.551,20.317,53.693,20.045,53.778,19.673z"/>
	<path fill="#FFFFFF" d="M55.654,21.541v-5.083h3.769v0.859H56.68v1.127h2.553v0.856H56.68v1.383h2.84v0.856H55.654z"/>
	<path fill="#FFFFFF" d="M60.395,21.541v-5.083h1.024v2h2.012v-2h1.025v5.083h-1.025v-2.223h-2.012v2.223H60.395z"/>
	<path fill="#FFFFFF" d="M65.309,19.031c0-0.518,0.078-0.952,0.232-1.303c0.114-0.259,0.274-0.492,0.474-0.696
		c0.199-0.207,0.418-0.359,0.657-0.459c0.317-0.133,0.682-0.201,1.096-0.201c0.748,0,1.348,0.232,1.797,0.697
		c0.451,0.465,0.675,1.11,0.675,1.939c0,0.819-0.224,1.462-0.669,1.926c-0.448,0.463-1.043,0.693-1.79,0.693
		c-0.755,0-1.356-0.229-1.802-0.689C65.532,20.475,65.309,19.84,65.309,19.031z M66.367,18.996c0,0.576,0.133,1.013,0.398,1.309
		c0.266,0.297,0.602,0.447,1.013,0.447c0.409,0,0.744-0.148,1.008-0.443c0.26-0.294,0.392-0.736,0.392-1.325
		c0-0.583-0.126-1.018-0.383-1.305c-0.255-0.286-0.595-0.429-1.017-0.429c-0.425,0-0.765,0.145-1.023,0.434
		C66.495,17.974,66.367,18.411,66.367,18.996z"/>
	<path fill="#FFFFFF" d="M71.068,21.541V16.5h1.024v4.185h2.554v0.856H71.068z"/>
	<path fill="#FFFFFF" d="M75.373,16.458h1.876c0.423,0,0.744,0.032,0.968,0.097c0.298,0.087,0.554,0.245,0.765,0.468
		c0.214,0.224,0.377,0.498,0.485,0.823c0.113,0.325,0.167,0.726,0.167,1.202c0,0.418-0.051,0.778-0.156,1.082
		c-0.127,0.369-0.309,0.669-0.545,0.896c-0.177,0.174-0.418,0.309-0.72,0.406c-0.225,0.07-0.528,0.107-0.908,0.107h-1.932V16.458z
		 M76.399,17.318v3.367h0.767c0.288,0,0.492-0.016,0.621-0.048c0.166-0.042,0.303-0.113,0.414-0.211
		c0.109-0.101,0.199-0.264,0.269-0.491c0.068-0.228,0.104-0.538,0.104-0.931s-0.036-0.695-0.104-0.906
		c-0.069-0.21-0.166-0.374-0.291-0.492c-0.125-0.117-0.282-0.197-0.476-0.237c-0.144-0.033-0.425-0.05-0.843-0.05H76.399z"/>
	<path fill="#FFFFFF" d="M80.504,21.541v-5.083h3.769v0.859h-2.743v1.127h2.553v0.856h-2.553v1.383h2.841v0.856H80.504z"/>
	<path fill="#FFFFFF" d="M85.244,21.541v-5.083h2.159c0.543,0,0.938,0.046,1.185,0.138c0.246,0.091,0.442,0.253,0.589,0.487
		c0.149,0.233,0.225,0.5,0.225,0.8c0,0.382-0.113,0.697-0.337,0.946c-0.226,0.248-0.561,0.404-1.006,0.47
		c0.222,0.129,0.404,0.271,0.55,0.426c0.144,0.155,0.338,0.43,0.584,0.825l0.621,0.991h-1.228l-0.742-1.105
		c-0.264-0.396-0.444-0.645-0.541-0.746c-0.096-0.104-0.199-0.174-0.309-0.213c-0.107-0.037-0.281-0.058-0.518-0.058h-0.206v2.122
		H85.244z M86.271,18.607h0.758c0.494,0,0.8-0.02,0.923-0.062c0.123-0.041,0.219-0.111,0.288-0.215
		c0.069-0.102,0.104-0.228,0.104-0.38c0-0.171-0.045-0.309-0.137-0.414c-0.09-0.106-0.221-0.173-0.387-0.2
		c-0.083-0.011-0.333-0.018-0.749-0.018h-0.8V18.607z"/>
</g>
</svg>
