<?xml version="1.0" encoding="utf-8"?>
<!-- Generator: Adobe Illustrator 15.0.0, SVG Export Plug-In . SVG Version: 6.00 Build 0)  -->
<!DOCTYPE svg PUBLIC "-//W3C//DTD SVG 1.1//EN" "http://www.w3.org/Graphics/SVG/1.1/DTD/svg11.dtd">
<svg version="1.1" id="Layer_1" xmlns="http://www.w3.org/2000/svg" xmlns:xlink="http://www.w3.org/1999/xlink" x="0px" y="0px"
	 width="400px" height="212px" viewBox="0 0 400 212" enable-background="new 0 0 400 212" xml:space="preserve">
<rect x="1.047" y="-46.5" fill="#CCCCCC" width="398.426" height="304.756"/>
<g>
	<path fill="#FFFFFF" d="M83.739,113.396V98.357h3.036v15.039H83.739z"/>
	<path fill="#FFFFFF" d="M89.625,113.396V98.357h4.544l2.73,10.26l2.699-10.26h4.552v15.039h-2.821v-11.839l-2.984,11.839h-2.921
		l-2.98-11.839v11.839H89.625z"/>
	<path fill="#FFFFFF" d="M120.729,113.396h-3.305l-1.311-3.418h-6.012l-1.243,3.418h-3.218l5.855-15.039h3.208L120.729,113.396z
		 M115.137,107.447l-2.074-5.581l-2.03,5.581H115.137z"/>
	<path fill="#FFFFFF" d="M129.333,107.866v-2.532h6.547v5.987c-0.637,0.615-1.561,1.158-2.766,1.626
		c-1.208,0.472-2.427,0.706-3.668,0.706c-1.574,0-2.944-0.329-4.114-0.991c-1.167-0.658-2.048-1.603-2.637-2.831
		c-0.589-1.226-0.878-2.564-0.878-4.003c0-1.568,0.323-2.958,0.981-4.178c0.656-1.215,1.618-2.149,2.883-2.799
		c0.965-0.5,2.163-0.75,3.603-0.75c1.866,0,3.323,0.393,4.372,1.176c1.051,0.779,1.725,1.864,2.028,3.248l-3.018,0.563
		c-0.21-0.741-0.608-1.322-1.193-1.749c-0.585-0.428-1.316-0.641-2.189-0.641c-1.329,0-2.383,0.42-3.168,1.259
		c-0.781,0.842-1.172,2.092-1.172,3.745c0,1.787,0.395,3.125,1.192,4.017c0.791,0.893,1.832,1.34,3.117,1.34
		c0.634,0,1.273-0.127,1.914-0.376c0.64-0.246,1.188-0.552,1.644-0.912v-1.905H129.333z"/>
	<path fill="#FFFFFF" d="M138.676,113.396V98.357h11.153v2.543h-8.113v3.335h7.55v2.534h-7.55v4.096h8.399v2.53H138.676z"/>
	<path fill="#FFFFFF" d="M158.527,113.396V98.357h4.872c1.846,0,3.051,0.077,3.608,0.226c0.864,0.228,1.584,0.718,2.165,1.473
		c0.583,0.753,0.876,1.73,0.876,2.928c0,0.924-0.168,1.699-0.506,2.33c-0.335,0.626-0.761,1.125-1.279,1.481
		c-0.516,0.361-1.039,0.597-1.57,0.712c-0.726,0.146-1.776,0.216-3.152,0.216h-1.979v5.673H158.527z M161.562,100.9v4.267h1.662
		c1.198,0,1.995-0.078,2.401-0.234c0.402-0.157,0.722-0.403,0.948-0.74c0.23-0.335,0.347-0.724,0.347-1.17
		c0-0.547-0.163-0.999-0.486-1.35c-0.321-0.359-0.724-0.581-1.221-0.67c-0.359-0.07-1.088-0.104-2.183-0.104H161.562z"/>
	<path fill="#FFFFFF" d="M172.62,113.396V98.479h3.036v12.386h7.55v2.53H172.62z"/>
	<path fill="#FFFFFF" d="M198.928,113.396h-3.303l-1.309-3.418h-6.011l-1.243,3.418h-3.216l5.851-15.039h3.212L198.928,113.396z
		 M193.341,107.447l-2.072-5.581l-2.028,5.581H193.341z"/>
	<path fill="#FFFFFF" d="M210.162,107.866l2.946,0.934c-0.452,1.646-1.201,2.863-2.252,3.66c-1.051,0.793-2.379,1.193-3.993,1.193
		c-1.999,0-3.641-0.682-4.925-2.046c-1.289-1.368-1.932-3.229-1.932-5.597c0-2.502,0.646-4.447,1.939-5.832
		c1.292-1.382,2.989-2.078,5.096-2.078c1.844,0,3.335,0.545,4.484,1.632c0.683,0.642,1.202,1.566,1.539,2.77l-3.002,0.718
		c-0.183-0.779-0.556-1.397-1.114-1.848c-0.563-0.45-1.253-0.674-2.055-0.674c-1.122,0-2.026,0.4-2.716,1.198
		c-0.698,0.803-1.047,2.096-1.047,3.888c0,1.901,0.345,3.254,1.031,4.062c0.686,0.805,1.574,1.213,2.668,1.213
		c0.806,0,1.495-0.262,2.078-0.776C209.492,109.771,209.908,108.966,210.162,107.866z"/>
	<path fill="#FFFFFF" d="M215.714,113.396V98.357h11.151v2.543h-8.118v3.335h7.551v2.534h-7.551v4.096h8.399v2.53H215.714z"/>
	<path fill="#FFFFFF" d="M229.735,113.396V98.357h3.038v5.918h5.948v-5.918h3.033v15.039h-3.033v-6.574h-5.948v6.574H229.735z"/>
	<path fill="#FFFFFF" d="M244.277,105.97c0-1.533,0.233-2.817,0.693-3.856c0.333-0.767,0.805-1.457,1.396-2.064
		c0.596-0.608,1.237-1.059,1.943-1.354c0.936-0.396,2.019-0.595,3.244-0.595c2.213,0,3.985,0.688,5.317,2.062
		c1.328,1.376,1.994,3.287,1.994,5.738c0,2.421-0.658,4.327-1.979,5.695c-1.324,1.372-3.085,2.058-5.294,2.058
		c-2.232,0-4.017-0.682-5.333-2.046C244.939,110.239,244.277,108.361,244.277,105.97z M247.409,105.869
		c0,1.697,0.393,2.99,1.182,3.87c0.781,0.877,1.781,1.32,2.99,1.32c1.21,0,2.205-0.439,2.982-1.312
		c0.773-0.868,1.166-2.181,1.166-3.919c0-1.725-0.377-3.012-1.135-3.86c-0.757-0.845-1.757-1.269-3.014-1.269
		c-1.253,0-2.256,0.426-3.021,1.285C247.79,102.844,247.409,104.136,247.409,105.869z"/>
	<path fill="#FFFFFF" d="M261.316,113.396V98.479h3.037v12.386h7.551v2.53H261.316z"/>
	<path fill="#FFFFFF" d="M274.053,98.357h5.552c1.253,0,2.209,0.095,2.863,0.29c0.885,0.255,1.642,0.72,2.269,1.384
		c0.63,0.662,1.11,1.475,1.436,2.435c0.333,0.96,0.487,2.146,0.487,3.557c0,1.237-0.146,2.3-0.456,3.198
		c-0.377,1.099-0.912,1.979-1.613,2.657c-0.523,0.512-1.237,0.916-2.13,1.197c-0.67,0.214-1.566,0.321-2.688,0.321h-5.719V98.357z
		 M277.091,100.9v9.965h2.272c0.845,0,1.459-0.051,1.836-0.146c0.491-0.123,0.899-0.337,1.229-0.622
		c0.317-0.298,0.583-0.781,0.79-1.456c0.202-0.674,0.309-1.59,0.309-2.755c0-1.16-0.106-2.05-0.309-2.677
		c-0.207-0.623-0.492-1.106-0.861-1.456c-0.368-0.349-0.836-0.584-1.407-0.706c-0.421-0.097-1.253-0.147-2.49-0.147H277.091z"/>
	<path fill="#FFFFFF" d="M289.236,113.396V98.357h11.151v2.543h-8.113v3.335h7.55v2.534h-7.55v4.096h8.402v2.53H289.236z"/>
	<path fill="#FFFFFF" d="M303.263,113.396V98.357h6.388c1.606,0,2.776,0.137,3.506,0.408c0.729,0.27,1.309,0.75,1.745,1.439
		c0.439,0.69,0.658,1.479,0.658,2.37c0,1.128-0.329,2.06-0.995,2.795c-0.663,0.733-1.654,1.196-2.971,1.39
		c0.654,0.381,1.193,0.803,1.626,1.261c0.424,0.462,0.999,1.271,1.725,2.444l1.836,2.931h-3.628l-2.197-3.271
		c-0.781-1.17-1.312-1.903-1.602-2.209c-0.285-0.305-0.587-0.513-0.916-0.63c-0.317-0.113-0.825-0.169-1.526-0.169h-0.615v6.279
		H303.263z M306.296,104.717h2.249c1.459,0,2.363-0.058,2.731-0.185c0.357-0.125,0.643-0.337,0.845-0.636
		c0.21-0.299,0.31-0.676,0.31-1.126c0-0.506-0.135-0.914-0.404-1.226c-0.27-0.315-0.65-0.512-1.146-0.591
		c-0.246-0.034-0.983-0.054-2.217-0.054h-2.367V104.717z"/>
</g>
</svg>
