<?xml version="1.0" encoding="utf-8"?>
<!-- Generator: Adobe Illustrator 15.0.0, SVG Export Plug-In . SVG Version: 6.00 Build 0)  -->
<!DOCTYPE svg PUBLIC "-//W3C//DTD SVG 1.1//EN" "http://www.w3.org/Graphics/SVG/1.1/DTD/svg11.dtd">
<svg version="1.1" id="Layer_1" xmlns="http://www.w3.org/2000/svg" xmlns:xlink="http://www.w3.org/1999/xlink" x="0px" y="0px"
	 width="350px" height="268px" viewBox="0 0 350 268" enable-background="new 0 0 350 268" xml:space="preserve">
<rect x="-19.444" y="-2.5" fill="#CCCCCC" width="388.889" height="273"/>
<g>
	<path fill="#FFFFFF" d="M54.242,141.709v-15.612h3.151v15.612H54.242z"/>
	<path fill="#FFFFFF" d="M60.353,141.709v-15.612h4.717l2.834,10.652l2.801-10.652h4.726v15.612h-2.929v-12.29l-3.098,12.29h-3.032
		l-3.093-12.29v12.29H60.353z"/>
	<path fill="#FFFFFF" d="M92.641,141.709h-3.431l-1.36-3.548h-6.241l-1.291,3.548h-3.341l6.079-15.612h3.33L92.641,141.709z
		 M86.836,135.534l-2.152-5.794l-2.108,5.794H86.836z"/>
	<path fill="#FFFFFF" d="M101.573,135.969v-2.628h6.796v6.215c-0.661,0.639-1.62,1.203-2.872,1.688
		c-1.253,0.489-2.519,0.732-3.808,0.732c-1.634,0-3.056-0.342-4.271-1.029c-1.212-0.684-2.126-1.663-2.738-2.939
		c-0.611-1.271-0.912-2.661-0.912-4.155c0-1.628,0.335-3.071,1.019-4.336c0.681-1.262,1.679-2.231,2.993-2.906
		c1.002-0.519,2.246-0.778,3.74-0.778c1.937,0,3.45,0.407,4.539,1.22c1.09,0.809,1.791,1.935,2.105,3.372l-3.133,0.584
		c-0.218-0.77-0.632-1.373-1.239-1.815c-0.607-0.444-1.367-0.665-2.272-0.665c-1.379,0-2.474,0.436-3.289,1.307
		c-0.811,0.875-1.216,2.171-1.216,3.888c0,1.854,0.41,3.244,1.237,4.17c0.821,0.926,1.902,1.391,3.235,1.391
		c0.659,0,1.321-0.132,1.986-0.392c0.665-0.255,1.233-0.571,1.707-0.946v-1.978H101.573z"/>
	<path fill="#FFFFFF" d="M111.271,141.709v-15.612h11.578v2.641h-8.422v3.462h7.838v2.63h-7.838v4.253h8.718v2.626H111.271z"/>
	<path fill="#FFFFFF" d="M131.879,141.709v-15.612h5.057c1.917,0,3.167,0.08,3.746,0.235c0.897,0.236,1.645,0.745,2.248,1.529
		c0.605,0.782,0.91,1.797,0.91,3.04c0,0.959-0.175,1.764-0.525,2.418c-0.348,0.65-0.791,1.167-1.328,1.538
		c-0.535,0.375-1.079,0.619-1.63,0.738c-0.753,0.152-1.844,0.225-3.273,0.225h-2.054v5.889H131.879z M135.03,128.738v4.43h1.725
		c1.243,0,2.07-0.081,2.492-0.243c0.418-0.163,0.75-0.417,0.984-0.768c0.239-0.348,0.36-0.751,0.36-1.214
		c0-0.568-0.168-1.038-0.504-1.402c-0.333-0.373-0.751-0.603-1.268-0.696c-0.373-0.072-1.13-0.107-2.266-0.107H135.03z"/>
	<path fill="#FFFFFF" d="M146.509,141.709v-15.484h3.151v12.858h7.837v2.626H146.509z"/>
	<path fill="#FFFFFF" d="M173.82,141.709h-3.429l-1.358-3.548h-6.24l-1.291,3.548h-3.338l6.074-15.612h3.334L173.82,141.709z
		 M168.02,135.534l-2.151-5.794l-2.105,5.794H168.02z"/>
	<path fill="#FFFFFF" d="M185.481,135.969l3.059,0.969c-0.469,1.709-1.247,2.973-2.338,3.8c-1.091,0.823-2.471,1.239-4.146,1.239
		c-2.075,0-3.779-0.708-5.112-2.124c-1.338-1.42-2.005-3.351-2.005-5.811c0-2.598,0.671-4.616,2.013-6.053
		c1.342-1.435,3.104-2.157,5.29-2.157c1.914,0,3.462,0.565,4.655,1.693c0.708,0.667,1.247,1.626,1.598,2.876l-3.116,0.745
		c-0.189-0.809-0.576-1.451-1.157-1.918c-0.584-0.467-1.301-0.699-2.132-0.699c-1.165,0-2.104,0.416-2.819,1.243
		c-0.725,0.834-1.087,2.176-1.087,4.037c0,1.974,0.357,3.377,1.07,4.217c0.712,0.836,1.634,1.26,2.77,1.26
		c0.836,0,1.553-0.271,2.157-0.807C184.786,137.946,185.218,137.111,185.481,135.969z"/>
	<path fill="#FFFFFF" d="M191.244,141.709v-15.612h11.576v2.641h-8.427v3.462h7.838v2.63h-7.838v4.253h8.719v2.626H191.244z"/>
	<path fill="#FFFFFF" d="M205.801,141.709v-15.612h3.153v6.144h6.175v-6.144h3.148v15.612h-3.148v-6.824h-6.175v6.824H205.801z"/>
	<path fill="#FFFFFF" d="M220.896,134.001c0-1.591,0.243-2.925,0.721-4.003c0.346-0.796,0.836-1.513,1.449-2.143
		c0.617-0.632,1.284-1.099,2.017-1.406c0.972-0.412,2.095-0.617,3.367-0.617c2.297,0,4.138,0.714,5.521,2.14
		c1.379,1.429,2.07,3.413,2.07,5.957c0,2.513-0.684,4.491-2.054,5.911c-1.375,1.425-3.203,2.137-5.496,2.137
		c-2.317,0-4.17-0.708-5.536-2.124C221.583,138.433,220.896,136.483,220.896,134.001z M224.148,133.896
		c0,1.762,0.407,3.103,1.227,4.018c0.811,0.909,1.848,1.37,3.104,1.37c1.255,0,2.288-0.456,3.096-1.362
		c0.802-0.901,1.21-2.264,1.21-4.069c0-1.791-0.392-3.126-1.178-4.007c-0.786-0.877-1.823-1.317-3.128-1.317
		c-1.302,0-2.343,0.442-3.137,1.333C224.543,130.755,224.148,132.097,224.148,133.896z"/>
	<path fill="#FFFFFF" d="M238.584,141.709v-15.484h3.153v12.858h7.838v2.626H238.584z"/>
	<path fill="#FFFFFF" d="M251.807,126.097h5.763c1.301,0,2.293,0.099,2.973,0.3c0.917,0.266,1.703,0.748,2.354,1.437
		c0.654,0.688,1.152,1.531,1.49,2.528c0.346,0.996,0.506,2.227,0.506,3.692c0,1.285-0.152,2.388-0.474,3.321
		c-0.391,1.14-0.946,2.054-1.675,2.758c-0.543,0.53-1.285,0.951-2.211,1.243c-0.695,0.222-1.626,0.333-2.791,0.333h-5.936V126.097z
		 M254.96,128.738v10.345h2.358c0.877,0,1.515-0.054,1.905-0.152c0.511-0.128,0.936-0.35,1.276-0.646
		c0.33-0.309,0.605-0.811,0.819-1.511c0.21-0.7,0.321-1.65,0.321-2.861c0-1.204-0.111-2.128-0.321-2.778
		c-0.214-0.646-0.51-1.148-0.893-1.511s-0.869-0.607-1.462-0.732c-0.437-0.101-1.301-0.153-2.585-0.153H254.96z"/>
	<path fill="#FFFFFF" d="M267.568,141.709v-15.612h11.575v2.641h-8.422v3.462h7.838v2.63h-7.838v4.253h8.723v2.626H267.568z"/>
	<path fill="#FFFFFF" d="M282.128,141.709v-15.612h6.632c1.667,0,2.882,0.142,3.639,0.424c0.758,0.28,1.359,0.778,1.812,1.494
		c0.457,0.716,0.684,1.535,0.684,2.459c0,1.171-0.342,2.139-1.033,2.902c-0.688,0.762-1.717,1.241-3.083,1.443
		c0.679,0.395,1.238,0.833,1.688,1.309c0.44,0.48,1.038,1.319,1.79,2.538l1.907,3.042h-3.767l-2.281-3.396
		c-0.811-1.214-1.362-1.976-1.663-2.292c-0.296-0.317-0.608-0.533-0.95-0.655c-0.33-0.117-0.856-0.174-1.586-0.174h-0.638v6.518
		H282.128z M285.277,132.7h2.334c1.516,0,2.453-0.06,2.836-0.191c0.371-0.13,0.667-0.35,0.878-0.661
		c0.218-0.311,0.32-0.702,0.32-1.169c0-0.525-0.14-0.949-0.419-1.271c-0.28-0.328-0.676-0.531-1.19-0.614
		c-0.256-0.035-1.021-0.056-2.301-0.056h-2.458V132.7z"/>
</g>
</svg>
