<?xml version="1.0" standalone="no"?>
<!DOCTYPE svg PUBLIC "-//W3C//DTD SVG 20010904//EN"
 "http://www.w3.org/TR/2001/REC-SVG-20010904/DTD/svg10.dtd">
<svg version="1.0" xmlns="http://www.w3.org/2000/svg"
 width="640.000000pt" height="640.000000pt" viewBox="0 0 640.000000 640.000000"
 preserveAspectRatio="xMidYMid meet">
<metadata>
Created by potrace 1.14, written by Peter Selinger 2001-2017
</metadata>
<g transform="translate(0.000000,640.000000) scale(0.100000,-0.100000)"
fill="#000000" stroke="none">
<path d="M770 5926 c-222 -47 -389 -256 -390 -486 0 -101 16 -165 61 -251 29
-54 139 -169 758 -789 796 -796 773 -770 773 -890 0 -85 -29 -131 -168 -272
-67 -68 -137 -148 -157 -178 -126 -198 -95 -467 73 -630 70 -70 124 -102 219
-130 130 -40 301 -16 412 57 51 33 836 818 875 875 15 21 40 75 56 119 47 134
35 285 -34 409 -24 42 -269 294 -1040 1066 -1087 1088 -1064 1067 -1200 1099
-74 17 -162 18 -238 1z"/>
<path d="M3725 4992 c-114 -14 -243 -79 -321 -163 -152 -163 -176 -435 -54
-617 20 -29 145 -162 278 -295 278 -279 299 -310 290 -421 -3 -36 -14 -77 -28
-101 -12 -22 -350 -370 -754 -775 -783 -787 -766 -767 -802 -903 -72 -272 114
-563 398 -623 81 -17 162 -13 249 12 128 37 135 44 1183 1097 543 547 1001
1014 1016 1037 71 107 96 294 58 420 -38 122 -65 152 -627 712 -483 482 -542
538 -601 566 -91 43 -202 65 -285 54z"/>
<path d="M815 3553 c-108 -17 -218 -75 -296 -157 -55 -58 -112 -167 -129 -246
-8 -40 -10 -363 -8 -1195 l3 -1140 26 -60 c63 -146 149 -234 288 -295 59 -25
91 -33 165 -37 81 -5 100 -2 171 21 44 15 101 41 127 58 64 40 147 133 181
201 59 118 58 93 55 1320 -3 1046 -5 1126 -21 1175 -53 157 -178 283 -331 335
-51 17 -179 29 -231 20z"/>
<path d="M5475 3165 c-150 -41 -262 -129 -334 -264 -84 -158 -73 -353 28 -508
21 -32 110 -129 199 -216 140 -138 169 -162 234 -192 148 -68 293 -67 437 2
257 123 364 435 234 687 -30 59 -66 100 -207 241 -129 129 -186 179 -233 203
-109 57 -252 76 -358 47z"/>
</g>
</svg>
